<?xml version="1.0" encoding="UTF-8"?>
<svg id="Layer_2" data-name="Layer 2" xmlns="http://www.w3.org/2000/svg" viewBox="0 0 435.67 88.01">
  <g id="Layer_1-2" data-name="Layer 1">
    <g>
      <g>
        <path d="M117.43,34.3c.99-.97,2.15-1.73,3.5-2.26,1.34-.53,2.83-.8,4.45-.8s3.13.3,4.52.91c1.39.6,2.64,1.51,3.76,2.72l3.72-3.5c-1.45-1.71-3.22-3-5.31-3.87-2.1-.87-4.41-1.31-6.95-1.31-2.39,0-4.59.39-6.6,1.17-2.01.78-3.76,1.89-5.27,3.32-1.51,1.43-2.67,3.12-3.5,5.07-.83,1.95-1.24,4.07-1.24,6.38s.41,4.43,1.24,6.38c.83,1.95,1.98,3.64,3.48,5.07,1.49,1.43,3.25,2.54,5.27,3.32,2.02.78,4.21,1.17,6.58,1.17,2.57,0,4.9-.44,7-1.33,2.1-.89,3.87-2.17,5.31-3.85l-3.72-3.54c-1.12,1.24-2.38,2.16-3.76,2.77-1.39.61-2.89.91-4.52.91s-3.11-.27-4.45-.8c-1.34-.53-2.51-1.28-3.5-2.26-.99-.97-1.76-2.13-2.3-3.45-.55-1.33-.82-2.79-.82-4.38s.27-3.06.82-4.38c.55-1.33,1.31-2.48,2.3-3.45Z"/>
        <path d="M171.58,47.3c1.96-.87,3.48-2.13,4.54-3.76,1.06-1.64,1.59-3.59,1.59-5.87s-.53-4.24-1.59-5.89-2.58-2.92-4.54-3.81c-1.96-.89-4.32-1.33-7.06-1.33h-12.75v30.99h5.76v-9.03h7c.41,0,.8-.03,1.2-.05l6.33,9.08h6.2l-7.13-10.17c.15-.06.32-.11.46-.17ZM169.99,42.23c-1.28,1.09-3.2,1.64-5.73,1.64h-6.73v-12.35h6.73c2.54,0,4.45.53,5.73,1.59,1.28,1.06,1.93,2.58,1.93,4.56s-.64,3.47-1.93,4.56Z"/>
        <path d="M219.42,30.74c-1.51-1.43-3.27-2.55-5.29-3.34-2.02-.8-4.24-1.2-6.66-1.2s-4.6.4-6.64,1.2c-2.04.8-3.81,1.91-5.31,3.34-1.51,1.43-2.67,3.12-3.5,5.05-.83,1.93-1.24,4.05-1.24,6.35s.41,4.42,1.24,6.35c.83,1.93,1.99,3.62,3.5,5.05,1.51,1.43,3.28,2.55,5.31,3.34,2.04.8,4.27,1.2,6.69,1.2s4.6-.4,6.62-1.2c2.02-.8,3.78-1.9,5.29-3.32,1.51-1.42,2.67-3.1,3.5-5.05.83-1.95,1.24-4.07,1.24-6.38s-.41-4.42-1.24-6.35c-.83-1.93-1.99-3.62-3.5-5.05ZM217.54,46.5c-.55,1.31-1.31,2.46-2.28,3.45-.97.99-2.12,1.75-3.45,2.28-1.33.53-2.77.8-4.34.8s-3.01-.27-4.34-.8c-1.33-.53-2.48-1.29-3.45-2.28-.97-.99-1.73-2.15-2.28-3.48-.55-1.33-.82-2.77-.82-4.34s.27-3.05.82-4.36c.55-1.31,1.31-2.46,2.3-3.45.99-.99,2.14-1.75,3.45-2.28,1.31-.53,2.75-.8,4.32-.8s3.01.27,4.34.8c1.33.53,2.48,1.29,3.45,2.28.97.99,1.73,2.14,2.28,3.45.55,1.31.82,2.77.82,4.36s-.27,3.05-.82,4.36Z"/>
        <polygon points="260.95 47.63 243.86 26.64 239.13 26.64 239.13 57.64 244.84 57.64 244.84 36.65 261.93 57.64 266.67 57.64 266.67 26.64 260.95 26.64 260.95 47.63"/>
        <path d="M293.41,26.64l-13.95,30.99h5.93l3.07-7.17h15.5l3.08,7.17h6.02l-13.99-30.99h-5.67ZM290.4,45.95l5.8-13.56,5.83,13.56h-11.63Z"/>
        <path d="M345.68,47.3c1.96-.87,3.48-2.13,4.54-3.76,1.06-1.64,1.59-3.59,1.59-5.87s-.53-4.24-1.59-5.89c-1.06-1.65-2.58-2.92-4.54-3.81-1.96-.89-4.32-1.33-7.06-1.33h-12.75v30.99h5.76v-9.03h7c.41,0,.8-.03,1.2-.05l6.33,9.08h6.2l-7.13-10.17c.15-.06.32-.11.46-.17ZM344.08,42.23c-1.28,1.09-3.2,1.64-5.73,1.64h-6.73v-12.35h6.73c2.54,0,4.45.53,5.73,1.59,1.28,1.06,1.93,2.58,1.93,4.56s-.64,3.47-1.93,4.56Z"/>
        <path d="M373.79,34.3c.99-.97,2.15-1.73,3.5-2.26,1.34-.53,2.83-.8,4.45-.8s3.13.3,4.52.91c1.39.6,2.64,1.51,3.76,2.72l3.72-3.5c-1.45-1.71-3.22-3-5.31-3.87-2.1-.87-4.41-1.31-6.95-1.31-2.39,0-4.59.39-6.6,1.17-2.01.78-3.76,1.89-5.27,3.32-1.51,1.43-2.67,3.12-3.5,5.07-.83,1.95-1.24,4.07-1.24,6.38s.41,4.43,1.24,6.38c.83,1.95,1.99,3.64,3.48,5.07,1.49,1.43,3.25,2.54,5.27,3.32,2.02.78,4.21,1.17,6.57,1.17,2.57,0,4.9-.44,7-1.33,2.1-.89,3.87-2.17,5.31-3.85l-3.72-3.54c-1.12,1.24-2.38,2.16-3.76,2.77-1.39.61-2.89.91-4.52.91s-3.11-.27-4.45-.8c-1.34-.53-2.51-1.28-3.5-2.26-.99-.97-1.76-2.13-2.3-3.45-.55-1.33-.82-2.79-.82-4.38s.27-3.06.82-4.38c.55-1.33,1.31-2.48,2.3-3.45Z"/>
        <polygon points="429.91 26.64 429.91 39.44 413.89 39.44 413.89 26.64 408.13 26.64 408.13 57.64 413.89 57.64 413.89 44.36 429.91 44.36 429.91 57.64 435.67 57.64 435.67 26.64 429.91 26.64"/>
      </g>
      <g>
        <path d="M69.39,65.37c1.17-1.39,2.23-2.88,3.18-4.45,2.95-4.95,4.63-10.74,4.63-16.91s-1.69-11.97-4.63-16.93c-.93-1.57-1.99-3.05-3.16-4.44l3.13-5.43,2.52-4.37c-.7-.71-1.42-1.39-2.18-2.04-2.13-1.87-4.47-3.54-6.95-4.96-6.45-3.72-13.92-5.84-21.91-5.84s-15.46,2.12-21.9,5.84c-2.48,1.42-4.82,3.08-6.97,4.96-.76.65-1.49,1.32-2.18,2.02l2.52,4.37,3.14,5.44c-1.17,1.39-2.23,2.88-3.18,4.45-2.95,4.95-4.63,10.74-4.63,16.91s1.69,11.97,4.63,16.93c.93,1.57,1.99,3.05,3.16,4.44l-3.13,5.43-2.52,4.37c.7.71,1.42,1.39,2.18,2.04,2.13,1.87,4.47,3.54,6.95,4.96,6.45,3.72,13.92,5.84,21.91,5.84s15.46-2.12,21.9-5.84c2.48-1.42,4.82-3.08,6.97-4.96.76-.65,1.49-1.32,2.18-2.02l-2.52-4.37-3.14-5.44ZM69.92,31.68c1.79,3.72,2.78,7.91,2.78,12.33h0c0,4.42-.99,8.61-2.78,12.33-.81,1.72-1.8,3.34-2.93,4.85l-9.91-17.18h0l9.32-16.15.6-1.03c1.13,1.51,2.12,3.13,2.93,4.85ZM66.91,70.02l-1.47-.66-4.65-2.1-13.6-6.14,7.3-12.61,9.37,16.22,2.32,3.99.74,1.31ZM54.48,39.5l-7.3-12.61,12.43-5.61,1.19-.55,4.63-2.09,1.47-.66-.74,1.29-2.32,4.01-.78,1.34-8.59,14.88ZM46.24,4.92c2.22.12,4.39.43,6.5.93,4.32.98,8.37,2.68,12.02,4.96.99.6,1.97,1.19,2.96,1.8-.99.46-1.97.91-2.96,1.37l-2.85,1.32-.68.31-5.08,2.28-.1.05-9.81,4.44V4.92ZM23.25,10.81c3.64-2.28,7.7-3.99,12.02-4.96,2.12-.5,4.29-.81,6.5-.93v17.48l-9.81-4.44-4.09-1.85c-.36-.15-.73-.31-1.09-.48-.48-.2-.98-.41-1.46-.63-.02,0-.03-.02-.03-.02-1.69-.71-3.38-1.44-5.05-2.17,1.01-.66,2.02-1.34,3.01-2ZM40.83,26.89l-7.3,12.61-9.37-16.22-2.32-3.99-.74-1.31,1.47.66,4.65,2.1,13.6,6.14ZM18.09,56.34c-1.79-3.72-2.78-7.91-2.78-12.33h0c0-4.42.99-8.61,2.78-12.33.81-1.72,1.8-3.34,2.93-4.85l9.91,17.18h0l-9.32,16.15-.6,1.03c-1.13-1.51-2.12-3.13-2.93-4.85ZM33.53,48.51l7.3,12.61-12.43,5.61-1.19.55-4.63,2.09-1.47.66.74-1.29,2.32-4.01.78-1.34,8.59-14.88ZM41.77,83.1c-2.22-.12-4.39-.43-6.5-.93-4.32-.98-8.37-2.68-12.02-4.96-.99-.6-1.97-1.19-2.96-1.8.99-.46,1.97-.91,2.96-1.37l2.85-1.32.68-.31,5.08-2.28.1-.05,9.81-4.44v17.48ZM41.77,53.75l-5.66-9.75h.02l5.64-9.75v9.75h0v9.75ZM46.24,34.26l5.66,9.75h-.02l-5.64,9.75v-9.75h0v-9.75ZM64.76,77.2c-3.64,2.28-7.7,3.99-12.02,4.96-2.12.5-4.29.81-6.5.93v-17.48l9.81,4.44,4.09,1.85c.36.15.73.31,1.09.48.48.2.98.41,1.46.63.02,0,.03.02.03.02,1.69.71,3.38,1.44,5.05,2.17-1.01.66-2.02,1.34-3.01,2Z"/>
        <path d="M88.01,44.01c0-10.31-3.54-19.78-9.48-27.27l-2.63,4.57c4.58,6.4,7.27,14.25,7.27,22.71h0c0,8.46-2.68,16.3-7.27,22.71l2.65,4.55c5.92-7.5,9.47-16.95,9.47-27.26h0Z"/>
        <path d="M4.85,44.01c0-8.46,2.68-16.3,7.27-22.71l-2.65-4.55C3.54,24.25,0,33.7,0,44.01h0C0,54.32,3.54,63.78,9.48,71.28l2.63-4.57c-4.58-6.4-7.27-14.25-7.27-22.71h0Z"/>
      </g>
    </g>
  </g>
</svg>